<svg xmlns="http://www.w3.org/2000/svg" viewBox="0 0 1200 1200" role="img" aria-labelledby="title desc">
  <title id="title">Ado Spectrum cover</title>
  <desc id="desc">Dark close-up inspired artwork for Ado Spectrum.</desc>
  <defs>
    <linearGradient id="bg" x1="0%" y1="0%" x2="100%" y2="100%">
      <stop offset="0%" stop-color="#f0f2f7"/>
      <stop offset="55%" stop-color="#283246"/>
      <stop offset="100%" stop-color="#0f1219"/>
    </linearGradient>
    <linearGradient id="hair" x1="0%" y1="0%" x2="100%" y2="100%">
      <stop offset="0%" stop-color="#151922"/>
      <stop offset="100%" stop-color="#39475d"/>
    </linearGradient>
  </defs>
  <rect width="1200" height="1200" fill="url(#bg)"/>
  <rect x="0" y="880" width="1200" height="320" fill="#0d1117" opacity=".44"/>
  <path d="M460 180c136 0 270 95 292 230 25 154-58 283-165 401-88 97-108 166-138 274H168c19-122 93-235 166-320 98-114 127-182 119-304-9-131 56-281 207-281Z" fill="url(#hair)"/>
  <path d="M262 928c54-113 164-234 288-256 84-15 152 7 243 39-76 96-132 177-157 289H262Z" fill="#c33c57" opacity=".48"/>
  <path d="M366 273c67-46 128-58 202-58 57 0 108 13 151 36-54 3-125 27-180 84-60 62-89 152-106 226-18 76-47 128-109 187l-39-27c58-72 76-141 89-221 15-97 54-177 110-227 13-11 39-31 72-53Z" fill="#111720" opacity=".78"/>
  <path d="M374 458c55-74 123-121 205-121 101 0 185 68 185 182 0 83-43 150-132 209-40 27-71 61-102 99H310c40-102 64-205 64-369Z" fill="#ebe9ee"/>
  <path d="M599 397c30 0 53 20 53 50 0 32-23 56-57 56-31 0-51-24-51-52 0-31 23-54 55-54Z" fill="#8adcf4"/>
  <circle cx="603" cy="451" r="18" fill="#203042"/>
  <path d="M657 466c26 21 54 31 89 34-39 21-66 52-105 85-29 25-56 62-81 113H464c52-71 81-125 111-176 17-29 42-57 82-56Z" fill="#f5f5f5"/>
  <path d="M716 373c56 10 97 46 133 112l-39 27c-28-46-57-75-103-92l9-47Z" fill="#b42d4b"/>
  <text x="92" y="964" fill="#ffffff" font-family="Arial, sans-serif" font-size="142" font-weight="700">ado</text>
  <text x="96" y="1050" fill="#ffffff" font-family="Arial, sans-serif" font-size="38" letter-spacing="8">ADO SPECTRUM VOL. 01</text>
</svg>
