<svg xmlns="http://www.w3.org/2000/svg" viewBox="0 0 1200 1200" role="img" aria-labelledby="title desc">
  <title id="title">White Echo cover</title>
  <desc id="desc">Station-themed typography artwork for White Echo.</desc>
  <defs>
    <linearGradient id="bg" x1="0%" y1="0%" x2="100%" y2="100%">
      <stop offset="0%" stop-color="#1f2a52"/>
      <stop offset="100%" stop-color="#8797d4"/>
    </linearGradient>
  </defs>
  <rect width="1200" height="1200" fill="url(#bg)"/>
  <rect x="0" y="850" width="1200" height="350" fill="#11152b" opacity=".44"/>
  <rect x="96" y="168" width="1008" height="836" fill="none" stroke="#cedbff" stroke-opacity=".18" stroke-width="24"/>
  <rect x="170" y="165" width="120" height="780" fill="#2b3667" opacity=".55"/>
  <rect x="920" y="165" width="110" height="780" fill="#2b3667" opacity=".55"/>
  <rect x="260" y="255" width="430" height="88" rx="10" fill="#24489a"/>
  <text x="294" y="313" fill="#ffffff" font-family="Arial, sans-serif" font-size="42" font-weight="700">TOKYO LINE / PLATFORM 29</text>
  <g fill="#ffffff">
    <rect x="270" y="596" width="70" height="162" rx="18" opacity=".88"/>
    <rect x="410" y="548" width="76" height="210" rx="18" opacity=".82"/>
    <rect x="554" y="572" width="68" height="186" rx="18" opacity=".86"/>
    <rect x="690" y="552" width="80" height="206" rx="18" opacity=".84"/>
    <rect x="852" y="602" width="68" height="156" rx="18" opacity=".8"/>
  </g>
  <g fill="#d9dbff" opacity=".36">
    <rect x="256" y="763" width="96" height="15"/>
    <rect x="394" y="763" width="112" height="15"/>
    <rect x="540" y="763" width="94" height="15"/>
    <rect x="676" y="763" width="112" height="15"/>
    <rect x="838" y="763" width="94" height="15"/>
  </g>
  <text x="72" y="384" fill="#ffffff" font-family="Georgia, serif" font-size="256" letter-spacing="18">NOGI</text>
  <text x="136" y="632" fill="#ffffff" font-family="Georgia, serif" font-size="240" letter-spacing="8">TIME</text>
  <text x="234" y="936" fill="#ffffff" font-family="Arial, sans-serif" font-size="52" letter-spacing="16">WHITE ECHO</text>
</svg>
